<svg id="Group_3235" data-name="Group 3235" xmlns="http://www.w3.org/2000/svg" xmlns:xlink="http://www.w3.org/1999/xlink" width="2153.436" height="1546.351" viewBox="0 0 2153.436 1546.351">
  <defs>
    <linearGradient id="linear-gradient" x1="0.5" y1="1" x2="0.5" gradientUnits="objectBoundingBox">
      <stop offset="0" stop-color="gray" stop-opacity="0.251"/>
      <stop offset="0.535" stop-color="gray" stop-opacity="0.122"/>
      <stop offset="1" stop-color="gray" stop-opacity="0.102"/>
    </linearGradient>
  </defs>
  <ellipse id="Ellipse_392" data-name="Ellipse 392" cx="1076.718" cy="130.874" rx="1076.718" ry="130.874" transform="translate(0 1284.604)" fill="#6c63ff" opacity="0.1"/>
  <path id="Path_987" data-name="Path 987" d="M997.486,941.71s56.156-71.458,51.615-142.354a137.7,137.7,0,0,1,21.67-84.363,231.607,231.607,0,0,1,26.386-33.128" transform="translate(844.849 537.917)" fill="none" stroke="#535461" stroke-miterlimit="10" stroke-width="2"/>
  <path id="Path_988" data-name="Path 988" d="M1048.506,664.517c-3.959,9.923,2.527,45.87,2.527,45.87s29.45-21.608,33.41-31.532a19.346,19.346,0,0,0-35.937-14.338Z" transform="translate(890.916 510.568)" fill="#6c63ff"/>
  <path id="Path_989" data-name="Path 989" d="M1021.258,692.152c2.07,10.482,27.051,37.131,27.051,37.131s12.977-34.144,10.907-44.626a19.346,19.346,0,1,0-37.958,7.5Z" transform="translate(866.523 526.053)" fill="#6c63ff"/>
  <path id="Path_990" data-name="Path 990" d="M1004.624,745.546c7.078,8,42.1,18.4,42.1,18.4s-6.034-36.025-13.112-44.029a19.346,19.346,0,0,0-28.983,25.632Z" transform="translate(846.965 567.109)" fill="#6c63ff"/>
  <path id="Path_991" data-name="Path 991" d="M997.831,784.584c5.624,9.084,38.381,25.246,38.381,25.246s.141-36.527-5.483-45.611a19.346,19.346,0,1,0-32.9,20.365Z" transform="translate(842.484 605.7)" fill="#6c63ff"/>
  <path id="Path_992" data-name="Path 992" d="M1076.378,727.039c-9.877,4.075-45.9-1.993-45.9-1.993s21.264-29.7,31.141-33.774a19.346,19.346,0,0,1,14.755,35.767Z" transform="translate(875.409 545.271)" fill="#6c63ff"/>
  <path id="Path_993" data-name="Path 993" d="M1067.631,774.752c-10.644.933-43.2-15.635-43.2-15.635s29.176-21.976,39.82-22.909a19.346,19.346,0,0,1,3.378,38.544Z" transform="translate(869.807 588.178)" fill="#6c63ff"/>
  <path id="Path_994" data-name="Path 994" d="M1055.092,819.217c-10.333,2.718-45.218-8.11-45.218-8.11s25.043-26.591,35.376-29.309a19.346,19.346,0,0,1,9.842,37.419Z" transform="translate(856.323 629.877)" fill="#6c63ff"/>
  <path id="Path_995" data-name="Path 995" d="M1048.506,664.517c-3.959,9.923,2.527,45.87,2.527,45.87s29.45-21.608,33.41-31.532a19.346,19.346,0,0,0-35.937-14.338Z" transform="translate(890.916 510.568)" opacity="0.25"/>
  <path id="Path_996" data-name="Path 996" d="M1021.258,692.152c2.07,10.482,27.051,37.131,27.051,37.131s12.977-34.144,10.907-44.626a19.346,19.346,0,1,0-37.958,7.5Z" transform="translate(866.523 526.053)" opacity="0.25"/>
  <path id="Path_997" data-name="Path 997" d="M1004.624,745.546c7.078,8,42.1,18.4,42.1,18.4s-6.034-36.025-13.112-44.029a19.346,19.346,0,0,0-28.983,25.632Z" transform="translate(846.965 567.109)" opacity="0.25"/>
  <path id="Path_998" data-name="Path 998" d="M997.831,784.584c5.624,9.084,38.381,25.246,38.381,25.246s.141-36.527-5.483-45.611a19.346,19.346,0,1,0-32.9,20.365Z" transform="translate(842.484 605.7)" opacity="0.25"/>
  <path id="Path_999" data-name="Path 999" d="M1076.378,727.039c-9.877,4.075-45.9-1.993-45.9-1.993s21.264-29.7,31.141-33.774a19.346,19.346,0,0,1,14.755,35.767Z" transform="translate(875.409 545.271)" opacity="0.25"/>
  <path id="Path_1000" data-name="Path 1000" d="M1067.631,774.752c-10.644.933-43.2-15.635-43.2-15.635s29.176-21.976,39.82-22.909a19.346,19.346,0,0,1,3.378,38.544Z" transform="translate(869.807 588.178)" opacity="0.25"/>
  <path id="Path_1001" data-name="Path 1001" d="M1055.092,819.217c-10.333,2.718-45.218-8.11-45.218-8.11s25.043-26.591,35.376-29.309a19.346,19.346,0,0,1,9.842,37.419Z" transform="translate(856.323 629.877)" opacity="0.25"/>
  <path id="Path_1002" data-name="Path 1002" d="M997.733,910.027s80.3-42.572,104.873-109.227a137.7,137.7,0,0,1,54-68.345,231.569,231.569,0,0,1,37.547-19.594" transform="translate(845.078 566.624)" fill="none" stroke="#535461" stroke-miterlimit="10" stroke-width="2"/>
  <path id="Path_1003" data-name="Path 1003" d="M1115.707,693.75c-7.641,7.468-16.278,42.959-16.278,42.959s35.68-7.821,43.321-15.288a19.346,19.346,0,0,0-27.043-27.671Z" transform="translate(939.264 543.821)" fill="#6c63ff"/>
  <path id="Path_1004" data-name="Path 1004" d="M1074.447,707.958c-2.355,10.422,9.685,44.907,9.685,44.907s25.7-25.957,28.055-36.378a19.346,19.346,0,1,0-37.74-8.529Z" transform="translate(915.844 548.111)" fill="#6c63ff"/>
  <path id="Path_1005" data-name="Path 1005" d="M1037.7,750.037c3.228,10.185,31.03,33.876,31.03,33.876s9.082-35.38,5.854-45.565a19.346,19.346,0,0,0-36.884,11.689Z" transform="translate(881.249 577.719)" fill="#6c63ff"/>
  <path id="Path_1006" data-name="Path 1006" d="M1015.658,782.968c1.46,10.584,24.859,38.633,24.859,38.633s14.93-33.337,13.47-43.92a19.346,19.346,0,0,0-38.329,5.287Z" transform="translate(861.509 611.186)" fill="#6c63ff"/>
  <path id="Path_1007" data-name="Path 1007" d="M1113.087,758.451c-10.681-.277-41.152-20.421-41.152-20.421s31.475-18.535,42.156-18.258a19.346,19.346,0,0,1-1,38.678Z" transform="translate(913.801 573.022)" fill="#6c63ff"/>
  <path id="Path_1008" data-name="Path 1008" d="M1083.372,797.853c-10.108-3.46-33.156-31.8-33.156-31.8s35.579-8.268,45.687-4.808a19.346,19.346,0,0,1-12.531,36.606Z" transform="translate(893.686 610.653)" fill="#6c63ff"/>
  <path id="Path_1009" data-name="Path 1009" d="M1055.237,833.7c-10.547-1.7-38.053-25.737-38.053-25.737s33.67-14.162,44.218-12.459a19.346,19.346,0,0,1-6.165,38.2Z" transform="translate(863.093 643.031)" fill="#6c63ff"/>
  <path id="Path_1010" data-name="Path 1010" d="M1141.78,231.724c-106.394-3.694-207.729-38.041-304.492-75.62S644.679,76.891,540.831,56.979C474.038,44.172,397.655,42.36,343.837,78.171c-51.789,34.461-68.523,93.948-77.52,149.144-6.769,41.528-10.749,85.234,7.8,124.112,12.877,26.991,35.741,49.679,51.551,75.532,55.016,89.959,16.13,200.89-43.49,288.726-27.967,41.2-60.406,80.51-81.987,124.371s-31.564,94.12-12.683,138.862c18.715,44.348,63.314,77.659,111.626,101.088,98.122,47.585,213.749,61.2,326.5,68.918,249.589,17.074,500.51,9.682,750.761,2.278,92.612-2.74,185.632-5.517,276.739-19.837,50.594-7.952,102.828-20.575,139.559-51.046,46.629-38.682,58.187-104.184,26.942-152.687-52.41-81.359-197.317-101.567-233.948-188.879-20.163-48.06.543-101.594,29.846-146.167,62.86-95.618,168.223-179.5,173.773-288.8,3.812-75.064-46.838-150.239-125.155-185.755-82.089-37.227-195.922-32.545-256.482,29.08C1345.308,210.569,1235.72,234.985,1141.78,231.724Z" transform="translate(85.446 -48.59)" fill="#6c63ff" opacity="0.1"/>
  <ellipse id="Ellipse_393" data-name="Ellipse 393" cx="72.34" cy="76.787" rx="72.34" ry="76.787" transform="translate(972.717 1203.203)" fill="#fbd56f"/>
  <ellipse id="Ellipse_394" data-name="Ellipse 394" cx="72.34" cy="76.787" rx="72.34" ry="76.787" transform="translate(972.717 1203.203)" opacity="0.1"/>
  <ellipse id="Ellipse_395" data-name="Ellipse 395" cx="72.34" cy="75.077" rx="72.34" ry="75.077" transform="translate(985.203 1206.624)" fill="#fbd56f"/>
  <path id="Path_1011" data-name="Path 1011" d="M610.125,752.174l-7.525-4.19s-3.52,14.688-2.369,25.154a5.214,5.214,0,0,0,3.919,4.5c17.31,4.3,99.814,22.614,156.548-3.183a5.2,5.2,0,0,0,3.015-4.183c.7-6.433-1.768-19.706-2.751-22.292C758.845,742.418,610.125,752.174,610.125,752.174Z" transform="translate(476.718 597.564)" fill="#fbd56f"/>
  <path id="Path_1012" data-name="Path 1012" d="M610.125,752.174l-7.525-4.19s-3.52,14.688-2.369,25.154a5.214,5.214,0,0,0,3.919,4.5c17.31,4.3,99.814,22.614,156.548-3.183a5.2,5.2,0,0,0,3.015-4.183c.7-6.433-1.768-19.706-2.751-22.292C758.845,742.418,610.125,752.174,610.125,752.174Z" transform="translate(476.718 597.564)" opacity="0.1"/>
  <ellipse id="Ellipse_396" data-name="Ellipse 396" cx="79.181" cy="17.848" rx="79.181" ry="17.848" transform="translate(1079.317 1327.698)" fill="#fbd56f"/>
  <path id="Path_1013" data-name="Path 1013" d="M625.83,738.5l-7.525-4.19s-3.52,14.688-2.369,25.154a5.214,5.214,0,0,0,3.918,4.5c17.31,4.3,99.814,22.614,156.548-3.182a5.205,5.205,0,0,0,3.015-4.184c.7-6.432-1.768-19.706-2.751-22.292C774.552,728.747,625.83,738.5,625.83,738.5Z" transform="translate(491.263 584.902)" fill="#fbd56f"/>
  <path id="Path_1014" data-name="Path 1014" d="M625.83,738.5l-7.525-4.19s-3.52,14.688-2.369,25.154a5.214,5.214,0,0,0,3.918,4.5c17.31,4.3,99.814,22.614,156.548-3.182a5.205,5.205,0,0,0,3.015-4.184c.7-6.432-1.768-19.706-2.751-22.292C774.552,728.747,625.83,738.5,625.83,738.5Z" transform="translate(491.263 584.902)" opacity="0.1"/>
  <ellipse id="Ellipse_397" data-name="Ellipse 397" cx="79.181" cy="17.848" rx="79.181" ry="17.848" transform="translate(1109.569 1301.366)" fill="#fbd56f"/>
  <path id="Path_1015" data-name="Path 1015" d="M639.715,720.534l-7.525-4.19s-3.52,14.688-2.369,25.154a5.214,5.214,0,0,0,3.918,4.5c17.31,4.3,99.814,22.614,156.548-3.183a5.206,5.206,0,0,0,3.015-4.184c.7-6.432-1.768-19.706-2.751-22.292C788.435,710.778,639.715,720.534,639.715,720.534Z" transform="translate(504.123 568.26)" fill="#fbd56f"/>
  <path id="Path_1016" data-name="Path 1016" d="M639.715,720.534l-7.525-4.19s-3.52,14.688-2.369,25.154a5.214,5.214,0,0,0,3.918,4.5c17.31,4.3,99.814,22.614,156.548-3.183a5.206,5.206,0,0,0,3.015-4.184c.7-6.432-1.768-19.706-2.751-22.292C788.435,710.778,639.715,720.534,639.715,720.534Z" transform="translate(504.123 568.26)" opacity="0.1"/>
  <ellipse id="Ellipse_398" data-name="Ellipse 398" cx="79.181" cy="17.848" rx="79.181" ry="17.848" transform="translate(1136.314 1266.755)" fill="#fbd56f"/>
  <path id="Path_1017" data-name="Path 1017" d="M624.34,701.828l-7.525-4.189s-3.52,14.688-2.369,25.154a5.215,5.215,0,0,0,3.919,4.5c17.31,4.3,99.814,22.614,156.548-3.183a5.206,5.206,0,0,0,3.016-4.183c.7-6.433-1.768-19.706-2.751-22.292C773.06,692.072,624.34,701.828,624.34,701.828Z" transform="translate(489.882 550.936)" fill="#fbd56f"/>
  <path id="Path_1018" data-name="Path 1018" d="M624.34,701.828l-7.525-4.189s-3.52,14.688-2.369,25.154a5.215,5.215,0,0,0,3.919,4.5c17.31,4.3,99.814,22.614,156.548-3.183a5.206,5.206,0,0,0,3.016-4.183c.7-6.433-1.768-19.706-2.751-22.292C773.06,692.072,624.34,701.828,624.34,701.828Z" transform="translate(489.882 550.936)" opacity="0.1"/>
  <ellipse id="Ellipse_399" data-name="Ellipse 399" cx="79.181" cy="17.848" rx="79.181" ry="17.848" transform="translate(1106.696 1230.726)" fill="#fbd56f"/>
  <path id="Path_1019" data-name="Path 1019" d="M658.93,686.817l-7.525-4.19s-3.519,14.688-2.369,25.154a5.214,5.214,0,0,0,3.918,4.5c17.31,4.3,99.814,22.614,156.548-3.183a5.206,5.206,0,0,0,3.015-4.184c.7-6.433-1.768-19.706-2.751-22.292C807.65,677.061,658.93,686.817,658.93,686.817Z" transform="translate(521.919 537.033)" fill="#fbd56f"/>
  <path id="Path_1020" data-name="Path 1020" d="M658.93,686.817l-7.525-4.19s-3.519,14.688-2.369,25.154a5.214,5.214,0,0,0,3.918,4.5c17.31,4.3,99.814,22.614,156.548-3.183a5.206,5.206,0,0,0,3.015-4.184c.7-6.433-1.768-19.706-2.751-22.292C807.65,677.061,658.93,686.817,658.93,686.817Z" transform="translate(521.919 537.033)" opacity="0.1"/>
  <ellipse id="Ellipse_400" data-name="Ellipse 400" cx="79.181" cy="17.848" rx="79.181" ry="17.848" transform="translate(1173.323 1201.811)" fill="#fbd56f"/>
  <path id="Path_1021" data-name="Path 1021" d="M635.558,676.726l-7.525-4.19s-3.52,14.688-2.369,25.154a5.214,5.214,0,0,0,3.918,4.5c17.31,4.3,99.814,22.614,156.548-3.183a5.206,5.206,0,0,0,3.015-4.184c.7-6.433-1.768-19.706-2.751-22.292C784.28,666.972,635.558,676.726,635.558,676.726Z" transform="translate(500.273 527.689)" fill="#fbd56f"/>
  <path id="Path_1022" data-name="Path 1022" d="M635.558,676.726l-7.525-4.19s-3.52,14.688-2.369,25.154a5.214,5.214,0,0,0,3.918,4.5c17.31,4.3,99.814,22.614,156.548-3.183a5.206,5.206,0,0,0,3.015-4.184c.7-6.433-1.768-19.706-2.751-22.292C784.28,666.972,635.558,676.726,635.558,676.726Z" transform="translate(500.273 527.689)" opacity="0.1"/>
  <ellipse id="Ellipse_401" data-name="Ellipse 401" cx="79.181" cy="17.848" rx="79.181" ry="17.848" transform="translate(1128.307 1182.378)" fill="#fbd56f"/>
  <path id="Path_1023" data-name="Path 1023" d="M651.162,657.248l-7.525-4.19s-3.52,14.688-2.369,25.154a5.214,5.214,0,0,0,3.918,4.5c17.31,4.3,99.814,22.614,156.548-3.183a5.206,5.206,0,0,0,3.016-4.184c.7-6.433-1.768-19.706-2.751-22.292C799.882,647.494,651.162,657.248,651.162,657.248Z" transform="translate(514.725 509.649)" fill="#fbd56f"/>
  <path id="Path_1024" data-name="Path 1024" d="M651.162,657.248l-7.525-4.19s-3.52,14.688-2.369,25.154a5.214,5.214,0,0,0,3.918,4.5c17.31,4.3,99.814,22.614,156.548-3.183a5.206,5.206,0,0,0,3.016-4.184c.7-6.433-1.768-19.706-2.751-22.292C799.882,647.494,651.162,657.248,651.162,657.248Z" transform="translate(514.725 509.649)" opacity="0.1"/>
  <ellipse id="Ellipse_402" data-name="Ellipse 402" cx="79.181" cy="17.848" rx="79.181" ry="17.848" transform="translate(1158.363 1144.86)" fill="#fbd56f"/>
  <path id="Path_1025" data-name="Path 1025" d="M658.859,634.128l-7.525-4.19s-3.52,14.688-2.369,25.154a5.214,5.214,0,0,0,3.918,4.5c17.31,4.3,99.814,22.614,156.548-3.183a5.206,5.206,0,0,0,3.015-4.184c.7-6.433-1.768-19.706-2.751-22.292C807.579,624.374,658.859,634.128,658.859,634.128Z" transform="translate(521.853 488.237)" fill="#fbd56f"/>
  <path id="Path_1026" data-name="Path 1026" d="M658.859,634.128l-7.525-4.19s-3.52,14.688-2.369,25.154a5.214,5.214,0,0,0,3.918,4.5c17.31,4.3,99.814,22.614,156.548-3.183a5.206,5.206,0,0,0,3.015-4.184c.7-6.433-1.768-19.706-2.751-22.292C807.579,624.374,658.859,634.128,658.859,634.128Z" transform="translate(521.853 488.237)" opacity="0.1"/>
  <ellipse id="Ellipse_403" data-name="Ellipse 403" cx="79.181" cy="17.848" rx="79.181" ry="17.848" transform="translate(1173.188 1100.328)" fill="#fbd56f"/>
  <path id="Path_1027" data-name="Path 1027" d="M728.254,757.536l-7.525-4.19s-3.52,14.688-2.369,25.154a5.214,5.214,0,0,0,3.918,4.5c17.31,4.3,99.814,22.614,156.548-3.183a5.206,5.206,0,0,0,3.015-4.184c.7-6.432-1.768-19.706-2.751-22.292C876.974,747.78,728.254,757.536,728.254,757.536Z" transform="translate(586.123 602.53)" fill="#fbd56f"/>
  <path id="Path_1028" data-name="Path 1028" d="M728.254,757.536l-7.525-4.19s-3.52,14.688-2.369,25.154a5.214,5.214,0,0,0,3.918,4.5c17.31,4.3,99.814,22.614,156.548-3.183a5.206,5.206,0,0,0,3.015-4.184c.7-6.432-1.768-19.706-2.751-22.292C876.974,747.78,728.254,757.536,728.254,757.536Z" transform="translate(586.123 602.53)" opacity="0.1"/>
  <ellipse id="Ellipse_404" data-name="Ellipse 404" cx="79.181" cy="17.848" rx="79.181" ry="17.848" transform="translate(1306.852 1338.028)" fill="#fbd56f"/>
  <path id="Path_1029" data-name="Path 1029" d="M742.138,739.566l-7.525-4.19s-3.52,14.688-2.369,25.154a5.214,5.214,0,0,0,3.918,4.5c17.31,4.3,99.814,22.614,156.548-3.183a5.207,5.207,0,0,0,3.016-4.183c.7-6.433-1.768-19.706-2.751-22.292C890.86,729.812,742.138,739.566,742.138,739.566Z" transform="translate(598.982 585.888)" fill="#fbd56f"/>
  <path id="Path_1030" data-name="Path 1030" d="M742.138,739.566l-7.525-4.19s-3.52,14.688-2.369,25.154a5.214,5.214,0,0,0,3.918,4.5c17.31,4.3,99.814,22.614,156.548-3.183a5.207,5.207,0,0,0,3.016-4.183c.7-6.433-1.768-19.706-2.751-22.292C890.86,729.812,742.138,739.566,742.138,739.566Z" transform="translate(598.982 585.888)" opacity="0.1"/>
  <ellipse id="Ellipse_405" data-name="Ellipse 405" cx="79.181" cy="17.848" rx="79.181" ry="17.848" transform="translate(1333.596 1303.417)" fill="#fbd56f"/>
  <path id="Path_1031" data-name="Path 1031" d="M726.762,720.862l-7.525-4.19s-3.52,14.688-2.369,25.154a5.214,5.214,0,0,0,3.918,4.5c17.31,4.3,99.814,22.614,156.548-3.183a5.205,5.205,0,0,0,3.016-4.183c.7-6.433-1.768-19.706-2.751-22.292C875.482,711.106,726.762,720.862,726.762,720.862Z" transform="translate(584.741 568.564)" fill="#fbd56f"/>
  <path id="Path_1032" data-name="Path 1032" d="M726.762,720.862l-7.525-4.19s-3.52,14.688-2.369,25.154a5.214,5.214,0,0,0,3.918,4.5c17.31,4.3,99.814,22.614,156.548-3.183a5.205,5.205,0,0,0,3.016-4.183c.7-6.433-1.768-19.706-2.751-22.292C875.482,711.106,726.762,720.862,726.762,720.862Z" transform="translate(584.741 568.564)" opacity="0.1"/>
  <ellipse id="Ellipse_406" data-name="Ellipse 406" cx="79.181" cy="17.848" rx="79.181" ry="17.848" transform="translate(1303.98 1267.389)" fill="#fbd56f"/>
  <path id="Path_1033" data-name="Path 1033" d="M761.353,705.851l-7.525-4.19s-3.52,14.688-2.369,25.154a5.214,5.214,0,0,0,3.918,4.5c17.31,4.3,99.814,22.614,156.548-3.183a5.206,5.206,0,0,0,3.016-4.183c.7-6.433-1.768-19.706-2.751-22.292C910.073,696.095,761.353,705.851,761.353,705.851Z" transform="translate(616.778 554.662)" fill="#fbd56f"/>
  <path id="Path_1034" data-name="Path 1034" d="M761.353,705.851l-7.525-4.19s-3.52,14.688-2.369,25.154a5.214,5.214,0,0,0,3.918,4.5c17.31,4.3,99.814,22.614,156.548-3.183a5.206,5.206,0,0,0,3.016-4.183c.7-6.433-1.768-19.706-2.751-22.292C910.073,696.095,761.353,705.851,761.353,705.851Z" transform="translate(616.778 554.662)" opacity="0.1"/>
  <ellipse id="Ellipse_407" data-name="Ellipse 407" cx="79.181" cy="17.848" rx="79.181" ry="17.848" transform="translate(1370.607 1238.473)" fill="#fbd56f"/>
  <path id="Path_1035" data-name="Path 1035" d="M737.982,695.76l-7.525-4.19s-3.52,14.688-2.369,25.154a5.214,5.214,0,0,0,3.918,4.5c17.31,4.3,99.814,22.614,156.548-3.182a5.207,5.207,0,0,0,3.016-4.184c.7-6.433-1.768-19.706-2.751-22.292C886.7,686.006,737.982,695.76,737.982,695.76Z" transform="translate(595.133 545.317)" fill="#fbd56f"/>
  <path id="Path_1036" data-name="Path 1036" d="M737.982,695.76l-7.525-4.19s-3.52,14.688-2.369,25.154a5.214,5.214,0,0,0,3.918,4.5c17.31,4.3,99.814,22.614,156.548-3.182a5.207,5.207,0,0,0,3.016-4.184c.7-6.433-1.768-19.706-2.751-22.292C886.7,686.006,737.982,695.76,737.982,695.76Z" transform="translate(595.133 545.317)" opacity="0.1"/>
  <ellipse id="Ellipse_408" data-name="Ellipse 408" cx="79.181" cy="17.848" rx="79.181" ry="17.848" transform="translate(1325.589 1219.04)" fill="#fbd56f"/>
  <path id="Path_1037" data-name="Path 1037" d="M753.585,676.283l-7.525-4.19s-3.52,14.688-2.369,25.154a5.214,5.214,0,0,0,3.918,4.5c17.31,4.3,99.814,22.614,156.548-3.183a5.206,5.206,0,0,0,3.016-4.184c.7-6.433-1.768-19.706-2.751-22.292C902.307,666.527,753.585,676.283,753.585,676.283Z" transform="translate(609.584 527.277)" fill="#fbd56f"/>
  <path id="Path_1038" data-name="Path 1038" d="M753.585,676.283l-7.525-4.19s-3.52,14.688-2.369,25.154a5.214,5.214,0,0,0,3.918,4.5c17.31,4.3,99.814,22.614,156.548-3.183a5.206,5.206,0,0,0,3.016-4.184c.7-6.433-1.768-19.706-2.751-22.292C902.307,666.527,753.585,676.283,753.585,676.283Z" transform="translate(609.584 527.277)" opacity="0.1"/>
  <ellipse id="Ellipse_409" data-name="Ellipse 409" cx="79.181" cy="17.848" rx="79.181" ry="17.848" transform="translate(1355.645 1181.523)" fill="#fbd56f"/>
  <path id="Path_1039" data-name="Path 1039" d="M761.282,653.163l-7.525-4.19s-3.52,14.688-2.369,25.154a5.214,5.214,0,0,0,3.918,4.5c17.31,4.3,99.814,22.614,156.548-3.183a5.206,5.206,0,0,0,3.015-4.184c.7-6.433-1.767-19.706-2.751-22.292C910,643.407,761.282,653.163,761.282,653.163Z" transform="translate(616.712 505.865)" fill="#fbd56f"/>
  <path id="Path_1040" data-name="Path 1040" d="M761.282,653.163l-7.525-4.19s-3.52,14.688-2.369,25.154a5.214,5.214,0,0,0,3.918,4.5c17.31,4.3,99.814,22.614,156.548-3.183a5.206,5.206,0,0,0,3.015-4.184c.7-6.433-1.767-19.706-2.751-22.292C910,643.407,761.282,653.163,761.282,653.163Z" transform="translate(616.712 505.865)" opacity="0.1"/>
  <ellipse id="Ellipse_410" data-name="Ellipse 410" cx="79.181" cy="17.848" rx="79.181" ry="17.848" transform="translate(1370.47 1136.99)" fill="#fbd56f"/>
  <path id="Path_1041" data-name="Path 1041" d="M1249.085,1256.229c-11.022-.389-11.416-4.661-25.586-12.041-8-4.164-20.146-16.26-29.2-25.994q-1.087-1.17-2.106-2.284c2.394-.052,3.752-.077,3.752-.077s-3.542-31.074-.394-38.454.787-51.273.787-51.273,1.968-33.4-1.575-41.173,1.181-57.488,1.181-57.488,3.149-29.52,3.936-89.727-34.64-62.149-34.64-62.149-4.723-.365-11.9-1.049c-.689-.065-1.417-.136-2.149-.207,4.645-9.723,7.353-17,7.353-17s-5.9-56.322-7.479-66.033-11.022-49.719-11.022-49.719-6.692-17.091-10.628-29.132-15.745-26.025-15.745-26.025-21.256-41.95-27.161-48.165c-2.74-2.882-6.581-6.518-9.912-9.586-.6-.554-1.174-1.079-1.732-1.588a70.338,70.338,0,0,0,1.409-13.3s-22.044-21.752-23.618-27.19-22.435-25.636-22.435-25.636-11.809-21.752-25.193-22.141a109.178,109.178,0,0,0-18.956.575c2.748-10.174,6-20.832,8.918-29.979.325-1.019.644-2.013.96-2.992a67.411,67.411,0,0,0,24.181-29.249c.279-.631.531-1.268.785-1.906.142,0,.282.027.424.025a10.568,10.568,0,0,0,1.656-.15c4.406-.757,8.135-5.732,6.1-9.659a1.44,1.44,0,0,0,1.284.705c1.468-.049,3.26-2.173,3.6-4.042.06-.324.092-.652.142-.978.063-.406.13-.81.177-1.218.045-.383.074-.767.106-1.151s.065-.792.085-1.19c.019-.372.03-.743.037-1.115.008-.428.005-.856,0-1.284-.007-.343-.011-.685-.027-1.027-.025-.521-.068-1.04-.116-1.559-.019-.213-.024-.427-.047-.64l0,.031a34.911,34.911,0,0,0-1.268-6.264c-2.176-7.22-6.739-14.38-4.98-21.71.019-.079.054-.151.075-.229l0,.014c1.465-5.688,6.387-9.821,9.4-14.9.287-.485.539-.985.788-1.486.046-.092.1-.18.144-.272.181-.378.334-.766.494-1.152.1-.248.216-.492.31-.744.126-.339.232-.684.342-1.027.1-.313.207-.624.3-.941s.153-.613.226-.92c.088-.371.175-.741.247-1.115.051-.268.09-.538.133-.808.066-.424.127-.849.172-1.277.024-.232.042-.463.06-.7.038-.477.064-.954.076-1.433,0-.192.007-.383.007-.575q0-.785-.04-1.57c-.009-.157-.017-.314-.028-.471-.039-.558-.1-1.114-.171-1.669-.01-.08-.014-.161-.025-.241l0,.022a27.993,27.993,0,0,0-5.638-13.388,34.5,34.5,0,0,0-28.334-12.255,47.461,47.461,0,0,1-8.909.164c-4.942-.724-9.121-3.863-13.06-6.9l-32.971-25.4a40.686,40.686,0,0,0-12.463-7.409c-4.659-1.426-10.245-.934-13.694,2.47-6.173,6.092-2.249,16.576-4.727,24.837-2.147,7.155-9.057,12-16.211,14.42s-14.809,2.947-22.16,4.7a12.229,12.229,0,0,0-5.93,2.725,11.471,11.471,0,0,0-2.577,8.258,44.533,44.533,0,0,0,5.118,21c1.39,2.638,3.074,5.3,4.553,8.006.122.223.241.447.359.671.165.31.331.62.489.932q.384.757.731,1.519c.1.219.19.44.284.66q.232.54.441,1.081c.088.23.174.46.255.691.149.425.281.851.4,1.279a14.213,14.213,0,0,1,.214,7.745c-1.134,4.175-4.393,7.392-7.268,10.654a20.721,20.721,0,0,0-4.857,9l-.013.075a7.229,7.229,0,0,0-.089,2.375c.014.1.026.2.046.293a4.15,4.15,0,0,0,.145.52,3.548,3.548,0,0,0,.154.362,3.37,3.37,0,0,0,.2.4,3.086,3.086,0,0,0,.5.59,3.285,3.285,0,0,0,.276.205,3.359,3.359,0,0,0,.505.31c.108.053.218.1.336.149a4.648,4.648,0,0,0,.806.22c.078.014.143.039.224.05a7.394,7.394,0,0,0,1.266.054c.122,0,.255-.019.383-.028a11.99,11.99,0,0,0,1.209-.153c.147-.026.291-.049.444-.081.58-.12,1.189-.267,1.858-.475a41.67,41.67,0,0,0,6.431-2.543c0,.237-.018.47-.018.707,0,.408,0,.835.039,1.243a65.462,65.462,0,0,0,4.252,22.279,67.288,67.288,0,0,0,20.527,28.363q-.171,1.006-.375,2.021c-1.9,9.315-5.865,18.66-8.314,17.938a33.385,33.385,0,0,0-7.3-.8c-.743-.022-1.463-.032-2.147-.036l0,0a29.115,29.115,0,0,0-6.692,0,7.253,7.253,0,0,1-2.928-.4,39.928,39.928,0,0,0-19.666-1.1c-13.612,2.789-34.317,7.893-39.993,14-8.66,9.322-21.256,18.256-35.427,57.1,0,0-7.085,23.694-12.6,26.8a36.771,36.771,0,0,1,3.74-1.681,9.975,9.975,0,0,1-2.952,3.234,43.448,43.448,0,0,1,6.2-2.585c-4.3,25.307,2.067,97.7,2.067,97.7s-5.117,12.483,1.575,19.863c3.977,4.386,6.138,11.225,7.243,16.066q-.466.727-.969,1.507v.008c-3.543,5.492-8.282,12.655-11.392,16.6-5.511,6.992-3.936,29.132-3.936,29.132s-1.181,10.488-5.117,14.372S772,830.9,772,830.9l-10.234,37.678s-9.447,8.545-9.447,12.43-7.479,14.76-7.479,14.76-11.416,18.645,0,15.926a35.814,35.814,0,0,0,11.525-5.8l-.005.279q-.025,1.025-.042,2.082c-.323,20.307,1.889,48.88,16.863,48.88,23.224,0,83.057,27.578,83.057,27.578,12.2,9.322,28.735,6.215,28.735,6.215s-29.129,29.132-28.342,41.173-16.533,31.851-16.533,31.851l-53.534,104.488a80.144,80.144,0,0,0,3.837,21.417c-.254.222-.518.434-.767.662-20.571,18.792-22.358,56-22.358,56l-4.724,19.033,71.642,31.463s92.9,1.942,109.037-2.331,12.6-22.14-8.66-25.636-26.374-12.818-33.459-17.091c-4.779-2.882-21.752-21.511-32.286-33.319l-.465-.522,2.441-13.547c4.724-2.331,11.809-25.636,11.809-25.636s0-9.322,4.724-12.041S901.9,1136.2,901.9,1136.2s21.256-35.347,20.075-40.008,15.352-28.355,15.352-28.355,27.948-27.19,26.767-32.046,22.437-29.715,22.437-29.715a78.82,78.82,0,0,0,20.9-24.067c2.125-.342,4.409-.707,6.818-1.111,30.908-5.065,82.27-14.224,88.009-16.772,7.873-3.5,6.3,12.041,3.149,25.248s-5.511,76.52-1.968,84.677,1.968,21.364,1.968,21.364l-4.724,71.083,3.149,15.149s-10.628,8.545-6.3,13.6.394,26.8.394,26.8c.372-.138.813-.272,1.307-.4-.379.853-.74,1.729-1.063,2.65-6.1,17.394-2.606,45.92-2.606,45.92v22.529s109.036,1.942,133.048,1.942,57.077-11.653,59.045-20.975S1260.1,1256.618,1249.085,1256.229ZM938.965,851.857l-7.143.6a59.322,59.322,0,0,1,7.143-.6Zm43.546-298.145c1-4.493,2.214-9.326,3.552-14.284Zm13.469,309.039a28.9,28.9,0,0,1-21.209.023l-.047-.023s.394-27.19,3.543-38.454,7.479-31.851,7.479-31.851,3.542-28.355,7.085-41.174,17.32-84.289,24.406-88.95,11.021,3.5,11.021,3.5,1.059-.022,2.833-.218q.5,1.118,1.128,2.378c8.4,16.974,33.042,51.832,33.042,51.832a56.757,56.757,0,0,1,18.107,17.868c6.692,11.264,8.66,37.677,8.66,37.677s14.958,58.653,22.044,66.81c3.543,4.078,1.968,6.51-.488,7.916a34.873,34.873,0,0,0-12.423,11.474c-1.008,1.6-2.076,3.357-3.159,5.23-2.709-.627-5.134-1.279-7.154-1.959-19.289-6.479-84.239-6.735-94.867-2.076Z" transform="translate(606.164 208.885)" fill="url(#linear-gradient)"/>
  <path id="Path_1042" data-name="Path 1042" d="M923.617,847.934v22.34s106.694,1.926,130.19,1.926,55.851-11.555,57.777-20.8-26.962-16.948-37.747-17.333-11.17-4.622-25.037-11.941c-7.827-4.129-19.714-16.124-28.573-25.776-6.833-7.449-11.871-13.512-11.871-13.512s-57.392-1.155-73.954,8.089c-3.813,2.134-6.448,6.309-8.235,11.471C920.2,819.646,923.617,847.934,923.617,847.934Z" transform="translate(775.533 631.391)" fill="#434175"/>
  <path id="Path_1043" data-name="Path 1043" d="M924.472,802.4c12.033-4.183,82.482-5.809,94.06-6.047-6.833-7.449-11.871-13.512-11.871-13.512s-57.391-1.155-73.954,8.089C928.894,793.062,926.259,797.238,924.472,802.4Z" transform="translate(777.228 631.391)" opacity="0.1"/>
  <path id="Path_1044" data-name="Path 1044" d="M763.77,615.448s2.226,1.348,6.225,3.759c.724.431,1.5.909,2.334,1.41,2.535,1.533,5.577,3.359,9.052,5.454C829.79,655.245,961.844,734.329,969.07,733.7c1.895-.162,7.588-1.017,15.446-2.3,2.08-.339,4.314-.7,6.671-1.1,30.244-5.023,80.5-14.105,86.118-16.632,7.7-3.467,6.163,11.94,3.081,25.037s-5.392,75.88-1.926,83.969,1.926,21.185,1.926,21.185l-4.622,70.488,3.081,15.022s-10.4,8.474-6.163,13.481.385,26.577.385,26.577c12.326-4.622,95.909-6.163,95.909-6.163s-3.467-30.814-.385-38.132.77-50.844.77-50.844,1.926-33.125-1.541-40.829,1.156-57.006,1.156-57.006,3.081-29.274,3.852-88.976-33.9-61.628-33.9-61.628-4.622-.362-11.64-1.04c-13.728-1.317-36.607-3.836-51.891-7.157a86.506,86.506,0,0,1-9.267-2.457c-18.874-6.425-82.428-6.679-92.828-2.057a27.93,27.93,0,0,1-20.753.023l-.046-.023-8.089-13.1-77.259,6.587-8.189.7-76.057,6.486-5.231.447Z" transform="translate(628.394 462.136)" fill="#565387"/>
  <path id="Path_1045" data-name="Path 1045" d="M930.081,666.067c22.44,10.939,43.856-27.841,53.84-49.726-13.728-1.317-36.607-3.836-51.891-7.157C921.978,626.055,908.566,655.583,930.081,666.067Z" transform="translate(771.765 470.604)" opacity="0.1"/>
  <path id="Path_1046" data-name="Path 1046" d="M889.554,520.8a23.53,23.53,0,0,0,2.719,7.534c8.22,16.832,32.332,51.4,32.332,51.4a55.843,55.843,0,0,1,17.718,17.718c6.548,11.17,8.474,37.362,8.474,37.362s14.637,58.162,21.57,66.251c3.467,4.044,1.926,6.456-.478,7.85A34.307,34.307,0,0,0,959.734,720.3c-10.1,16.239-26.223,48.448-3.543,59.5,30.814,15.022,59.7-63.708,59.7-63.708s-5.778-55.851-7.318-65.48-10.785-49.3-10.785-49.3-6.548-16.948-10.4-28.888-15.407-25.807-15.407-25.807-20.8-41.6-26.577-47.761c-2.681-2.858-6.44-6.463-9.7-9.506-3.767-3.521-6.864-6.286-6.864-6.286S889.169,511.56,889.554,520.8Z" transform="translate(744.886 353.791)" fill="#ee8e9e"/>
  <path id="Path_1047" data-name="Path 1047" d="M753.971,855.158l70.1,31.2s90.9,1.926,106.694-2.311,12.326-21.955-8.474-25.422-25.807-12.711-32.74-16.948c-4.676-2.858-21.285-21.331-31.592-33.041C853,803,849.5,798.923,849.5,798.923S836.014,763.1,798.652,771.19a38.284,38.284,0,0,0-18.18,9.568c-20.13,18.635-21.878,55.527-21.878,55.527Z" transform="translate(619.318 619.544)" fill="#434175"/>
  <path id="Path_1048" data-name="Path 1048" d="M768.213,621.359c2.534,1.533,5.577,3.359,9.052,5.454,48.409,29.174,180.464,108.258,187.69,107.627,1.9-.162,7.588-1.017,15.446-2.3,2.08-.339,4.314-.7,6.671-1.1.092-.146.177-.293.262-.439a88.526,88.526,0,0,0,8.82-21.585c8.089-30.814-31.97-54.31-31.97-54.31l-8.474-6.587c-9.629-16.216-78.962-31.546-78.962-31.546l-8.936-6-4.769-3.2-1.256-.84-10.847-7.288-54.31,3.852L780.5,613.462l-1.7,1.094-5.986,3.852Z" transform="translate(632.508 461.395)" opacity="0.1"/>
  <path id="Path_1049" data-name="Path 1049" d="M767.729,780.758c14.745,51,76.342,34.342,76.342,34.342l1.148-6.463c-4.961-5.639-8.466-9.714-8.466-9.714S823.272,763.1,785.909,771.19A38.282,38.282,0,0,0,767.729,780.758Z" transform="translate(632.06 619.544)" opacity="0.1"/>
  <path id="Path_1050" data-name="Path 1050" d="M767.319,706.736c22.726,0,81.273,27.348,81.273,27.348,11.94,9.244,28.118,6.163,28.118,6.163s-28.5,28.888-27.733,40.829S832.8,812.661,832.8,812.661L780.415,916.273c3.852,73.569,79.347,53.155,79.347,53.155l3.082-17.333c4.622-2.311,11.555-25.422,11.555-25.422s0-9.244,4.622-11.941S893.272,884.3,893.272,884.3s20.8-35.051,19.644-39.673,15.022-28.118,15.022-28.118,27.348-26.963,26.192-31.777,21.954-29.468,21.954-29.468A77.78,77.78,0,0,0,996.537,731.4a88.551,88.551,0,0,0,8.82-21.586c6.517-24.813-18.2-44.889-28.064-51.752-2.388-1.664-3.906-2.558-3.906-2.558l-8.474-6.587c-4.376-7.38-21.108-14.567-38.048-20.214-12.218-4.075-24.551-7.349-32.432-9.313-5.215-1.294-8.482-2.018-8.482-2.018l-8.936-6-3.143-2.111-2.881-1.934-10.847-7.288-24.166,1.71-30.144,2.142L789.7,614.262l-7.688,4.946L751.911,638.56s-.793,7.411-1.048,17.356c-.016.77-.031,1.548-.046,2.35C750.5,678.4,752.666,706.736,767.319,706.736Z" transform="translate(616.372 462.136)" fill="#565387"/>
  <path id="Path_1051" data-name="Path 1051" d="M819.562,449.459l8.089,28.888S841.9,528.036,843.443,531.5s38.9,38.518,40.444,39.288,21.886,12.326,21.886,12.326,1.61-63.554.069-82.043a52.777,52.777,0,0,1,1-12.11c2.458-14.49,8.674-35.737,13.828-52.1,4.314-13.712,7.9-24,7.9-24s-90.132-3.852-87.05,5.007c1.163,3.351.786,8.952-.339,14.568-1.857,9.237-5.739,18.5-8.135,17.788a32.254,32.254,0,0,0-7.141-.794C822.574,449.336,819.562,449.459,819.562,449.459Z" transform="translate(680.065 288.013)" fill="#ee8e9e"/>
  <path id="Path_1052" data-name="Path 1052" d="M830.785,432.442a66.663,66.663,0,0,0,79.493,4.422c4.314-13.712,7.9-24,7.9-24s-90.132-3.852-87.05,5.007C832.287,421.226,831.91,426.827,830.785,432.442Z" transform="translate(690.459 288.013)" opacity="0.1"/>
  <path id="Path_1053" data-name="Path 1053" d="M951.637,426.917a66.382,66.382,0,0,1-3.332,20.8,54.433,54.433,0,0,1-1.926,5.1,66.642,66.642,0,0,1-123.813-2.581,65.683,65.683,0,0,1-4.16-22.093c-.039-.4-.039-.828-.039-1.233a66.635,66.635,0,0,1,133.271,0Z" transform="translate(678.958 240.083)" fill="#ee8e9e"/>
  <path id="Path_1054" data-name="Path 1054" d="M819.562,431.494l8.089,28.888s14.251,49.688,15.792,53.155,38.9,38.518,40.444,39.288,21.886,12.326,21.886,12.326,1.61-63.554.069-82.043a52.777,52.777,0,0,1,1-12.11l-5.238,21.354.385,42.755,3.081,2.311-6.933,10.4v-7.7s-24.651-23.881-28.5-33.9-17.718-28.149-17.718-28.149S836.125,451.523,835.74,446.9c-.3-3.605-6.933-11.94-9.837-15.43C822.574,431.371,819.562,431.494,819.562,431.494Z" transform="translate(680.065 305.978)" opacity="0.1"/>
  <path id="Path_1055" data-name="Path 1055" d="M889.554,520.8a23.527,23.527,0,0,0,2.719,7.534c8.42-.863,37.116-6.217,43.433-39-3.767-3.521-6.864-6.286-6.864-6.286S889.169,511.561,889.554,520.8Z" transform="translate(744.886 353.791)" opacity="0.1"/>
  <path id="Path_1056" data-name="Path 1056" d="M750.8,658.265c7.773-5.5,15.168-13,19.582-15.083,6.548-3.081,16.563-13.1,16.563-13.1s2.542-1.726,6.44-4.014c7.149-4.191,18.866-10.261,27.841-11.008,8.042-.67,34.758-2.38,55.774-3.69,15.207-.955,27.425-1.7,27.425-1.7s25.037-8.859,35.821-3.081a113.184,113.184,0,0,0,24.266,8.859s.008-.84.046-2.288l-.046-.023-8.089-13.1-85.448,7.287-10.847-7.287-54.31,3.852-16.131,10.369-13.913,1.186s2.226,1.348,6.225,3.759L751.9,638.56S750.974,647.164,750.8,658.265Z" transform="translate(616.385 462.136)" opacity="0.1"/>
  <path id="Path_1057" data-name="Path 1057" d="M747.359,818.9a34.87,34.87,0,0,0,11.278-5.747v-.008c7.758-5.493,15.13-12.973,19.536-15.045,6.548-3.081,16.563-13.1,16.563-13.1s20.414-13.866,34.281-15.022c3.782-.316,11.686-.863,21.185-1.479,9.722-.647,21.1-1.371,31.446-2.011,5.963-.377,11.578-.732,16.324-1.025l14.244-.878s25.037-8.859,35.822-3.081a113.163,113.163,0,0,0,24.266,8.859s.385-26.962,3.467-38.133,7.318-31.585,7.318-31.585,3.467-28.118,6.933-40.829,16.948-83.584,23.881-88.206,10.785,3.467,10.785,3.467,46.221-.77,46.992-51.614c0,0-21.57-21.57-23.111-26.963s-21.954-25.422-21.954-25.422-11.555-21.57-24.651-21.955a105.36,105.36,0,0,0-18.55.57L972.3,494.965l.385,42.755,3.082,2.311-6.933,10.4v-7.7s-24.651-23.881-28.5-33.9-17.718-28.149-17.718-28.149-15.792-26.547-16.177-31.169-11.17-17.009-11.17-17.009a28.114,28.114,0,0,0-6.548,0,7.009,7.009,0,0,1-2.866-.4,38.573,38.573,0,0,0-19.244-1.094c-13.32,2.766-33.58,7.827-39.134,13.882-8.474,9.244-20.8,18.1-34.666,56.621l74.725,26.962-6.394,12.156L801.67,653.658s-1.972,3.212-4.645,7.411v.008c-3.467,5.446-8.1,12.549-11.147,16.462-5.392,6.933-3.852,28.888-3.852,28.888s-1.156,10.4-5.007,14.252-3.081,18.1-3.081,18.1l-10.015,37.363s-9.244,8.474-9.244,12.326-7.318,14.637-7.318,14.637S736.189,821.6,747.359,818.9Z" transform="translate(608.597 304.906)" fill="#434175"/>
  <path id="Path_1058" data-name="Path 1058" d="M964.932,646.435s-24.266,8.089-30.814,19.644S964.932,646.435,964.932,646.435Z" transform="translate(785.448 505.103)" opacity="0.1"/>
  <path id="Path_1059" data-name="Path 1059" d="M958.392,633.237c-.77,1.156-33.236,33.733-31.2,41.6S958.392,633.237,958.392,633.237Z" transform="translate(779.662 492.88)" opacity="0.1"/>
  <path id="Path_1060" data-name="Path 1060" d="M869.726,645.235s-36.206,17.075-39.287,24.522S869.726,645.235,869.726,645.235Z" transform="translate(689.989 503.992)" opacity="0.1"/>
  <path id="Path_1061" data-name="Path 1061" d="M867.576,656.634S834.9,670.5,830.438,673.967,867.576,656.634,867.576,656.634Z" transform="translate(689.828 514.549)" opacity="0.1"/>
  <path id="Path_1062" data-name="Path 1062" d="M853.2,673.073s-14.472,10.785-22.45,2.311S853.2,673.073,853.2,673.073Z" transform="translate(689.187 527.77)" opacity="0.1"/>
  <path id="Path_1063" data-name="Path 1063" d="M900.3,526.051c-.777,1.156-48.924,87.82-61.635,94.369S900.3,526.051,900.3,526.051Z" transform="translate(696.401 393.61)" opacity="0.1"/>
  <path id="Path_1064" data-name="Path 1064" d="M895.372,543.049c0,1.926-46.992,102.457-54.7,103.613S895.372,543.049,895.372,543.049Z" transform="translate(699.01 409.353)" opacity="0.1"/>
  <path id="Path_1065" data-name="Path 1065" d="M791.768,576.644s-22.7,48.465-31.585,51.229S791.768,576.644,791.768,576.644Z" transform="translate(623.89 440.467)" opacity="0.1"/>
  <path id="Path_1066" data-name="Path 1066" d="M780.414,565.446s-7.824,16.948-12.578,16.948S780.414,565.446,780.414,565.446Z" transform="translate(631.394 430.095)" opacity="0.1"/>
  <path id="Path_1067" data-name="Path 1067" d="M951.637,426.917a66.386,66.386,0,0,1-3.332,20.8,54.468,54.468,0,0,1-1.926,5.1,19.6,19.6,0,0,1-9.342-4.1,23.128,23.128,0,0,1-6.991-7.474,93.642,93.642,0,0,1-3.409-9.727,22.63,22.63,0,0,0-18.279-13.849c2.215,3.775-1.31,8.957-5.644,9.631-4.334.655-8.552-1.926-11.538-5.143s-5.143-7.127-8.109-10.343c-2.985-3.217-7.2-5.8-11.538-5.143-3.833.578-6.8,3.506-10.016,5.682-3.2,2.177-7.685,3.64-10.786,1.31-1.734-1.291-2.581-3.486-4.238-4.892-4.257-3.563-10.882.116-14.022,4.719-4.835,7.127-7.781,11.441-14.061,14.658-.039-.4-.039-.828-.039-1.233a66.635,66.635,0,1,1,133.271,0Z" transform="translate(678.958 240.083)" opacity="0.1"/>
  <path id="Path_1068" data-name="Path 1068" d="M839.734,438.855c3.134-4.607,9.756-8.29,14.025-4.709,1.657,1.39,2.5,3.588,4.229,4.889,3.1,2.333,7.59.869,10.792-1.315s6.176-5.1,10.008-5.682c4.335-.66,8.559,1.924,11.536,5.143s5.135,7.125,8.112,10.344,7.2,5.8,11.538,5.137,7.868-5.85,5.64-9.626a22.633,22.633,0,0,1,18.275,13.848,93.751,93.751,0,0,0,3.412,9.726,23.072,23.072,0,0,0,7,7.467c3.534,2.591,7.818,4.776,12.135,4.024s7.972-5.7,5.966-9.595c1.38,2.1,4.342-.823,4.79-3.292a35.231,35.231,0,0,0-.891-16.257c-2.129-7.16-6.594-14.26-4.873-21.528,1.362-5.755,6.28-9.887,9.265-14.991,5.292-9.05,3.887-21.24-2.548-29.516a33.558,33.558,0,0,0-27.725-12.152,45.849,45.849,0,0,1-8.717.162c-4.836-.718-8.925-3.831-12.779-6.839l-32.264-25.185a39.7,39.7,0,0,0-12.195-7.347c-4.559-1.414-10.025-.926-13.4,2.449-6.04,6.041-2.2,16.437-4.626,24.629-2.1,7.095-8.862,11.9-15.863,14.3s-14.491,2.923-21.684,4.657a11.9,11.9,0,0,0-5.8,2.7,11.477,11.477,0,0,0-2.521,8.189,44.635,44.635,0,0,0,5.009,20.83c3.736,7.185,9.658,14.571,7.562,22.394-1.109,4.14-4.3,7.33-7.111,10.565-6.1,7.012-8.155,17.374,3.318,13.754C830.4,452.542,833.5,448.023,839.734,438.855Z" transform="translate(671.699 212.792)" fill="#434175"/>
  <g id="Group_3234" data-name="Group 3234" transform="translate(1482.274 598.245)" opacity="0.1">
    <path id="Path_1069" data-name="Path 1069" d="M966.92,412.649c-.448,2.469-3.41,5.388-4.79,3.292,2.007,3.9-1.648,8.843-5.966,9.595s-8.6-1.433-12.136-4.024a23.066,23.066,0,0,1-7-7.467,93.807,93.807,0,0,1-3.412-9.725,22.633,22.633,0,0,0-18.275-13.848c2.228,3.776-1.305,8.963-5.64,9.626s-8.56-1.918-11.538-5.137-5.135-7.124-8.112-10.344-7.2-5.8-11.536-5.143c-3.832.583-6.806,3.5-10.008,5.682s-7.7,3.648-10.792,1.315c-1.727-1.3-2.573-3.5-4.229-4.889-4.269-3.581-10.891.1-14.025,4.709-6.237,9.167-9.337,13.686-20.388,17.172-3.628,1.145-5.9.886-7.118-.218-2.425,5.569-1.321,10.474,7.118,7.812,11.051-3.487,14.151-8.005,20.388-17.172,3.134-4.607,9.756-8.29,14.025-4.709,1.657,1.39,2.5,3.588,4.229,4.889,3.1,2.333,7.59.869,10.792-1.315s6.176-5.1,10.008-5.682c4.335-.66,8.559,1.924,11.536,5.143s5.134,7.125,8.112,10.344,7.2,5.8,11.538,5.137,7.868-5.85,5.64-9.626a22.634,22.634,0,0,1,18.275,13.848,93.87,93.87,0,0,0,3.413,9.726,23.073,23.073,0,0,0,7,7.467c3.535,2.591,7.818,4.776,12.136,4.024s7.972-5.7,5.966-9.595c1.38,2.1,4.342-.823,4.79-3.292a35.188,35.188,0,0,0,.347-10.076C967.178,411,967.068,411.827,966.92,412.649Z" transform="translate(-810.296 -340.483)"/>
    <path id="Path_1070" data-name="Path 1070" d="M823.025,398.135c.029-.1.072-.192.1-.293,2.1-7.823-3.826-15.208-7.562-22.393a44.642,44.642,0,0,1-4.788-16.268,21.606,21.606,0,0,0-.221,3.033,44.636,44.636,0,0,0,5.008,20.83C818.115,387.956,821.688,392.962,823.025,398.135Z" transform="translate(-810.553 -359.181)"/>
    <path id="Path_1071" data-name="Path 1071" d="M898.322,373.416c-2.985,5.105-7.9,9.237-9.266,14.992a16.723,16.723,0,0,0,.068,7.381c1.434-5.641,6.25-9.739,9.2-14.778a25.313,25.313,0,0,0,2.966-16.262A23.834,23.834,0,0,1,898.322,373.416Z" transform="translate(-738.197 -354.026)"/>
  </g>
  <path id="Path_1072" data-name="Path 1072" d="M770.757,608.006v.008a58.829,58.829,0,0,1,1.179,6.448s30.429,71.258,34.281,75.495c1.186,1.3,5.655,7.711,11.27,15.962,2.034,2.981,4.214,6.209,6.448,9.522,11.648,17.287,24.651,36.915,24.651,36.915l28.5,25.037s62.006,4.961,81.712-15.161c-2.388-1.664-3.906-2.558-3.906-2.558l-8.474-6.587c-4.376-7.38-21.108-14.567-38.048-20.214-15.607.116-28.372,1.379-28.372,1.379l-4.06-10.693L871.7,712.4l-21.547-56.729s-13.9-71.643-18.519-75.11-3.466-14.252-3.466-14.252,8.474-30.429,5.393-34.666,5.007-35.436,5.007-35.436a32.324,32.324,0,0,0-3.7-8.643L775.4,600.6S773.431,603.807,770.757,608.006Z" transform="translate(634.864 357.969)" opacity="0.1"/>
  <path id="Path_1073" data-name="Path 1073" d="M844.709,506.582s-8.089,31.2-5.007,35.436-5.392,34.666-5.392,34.666-1.156,10.785,3.467,14.252,18.518,75.11,18.518,75.11l29.843,78.576s93.384-9.244,83.755,20.029-86.665,23.111-86.665,23.111l-28.5-25.037s-38.518-58.162-42.37-62.4-34.281-75.495-34.281-75.495-1.541-14.251-8.089-21.57-1.541-19.7-1.541-19.7-8.089-93.161.385-104.331S835.851,473.07,844.709,506.582Z" transform="translate(629.497 345.288)" fill="#ee8e9e"/>
  <path id="Path_1074" data-name="Path 1074" d="M799.163,463.011,774.9,477.648s-6.933,23.5-12.326,26.577c0,0,48.532-26.962,85.124,35.051,0,0-1.155-8.089,3.852-11.94s3.852-20.415,3.852-20.415a66.705,66.705,0,0,0,3.467-8.089C862.331,490.358,844.227,441.827,799.163,463.011Z" transform="translate(627.282 330.312)" opacity="0.1"/>
  <path id="Path_1075" data-name="Path 1075" d="M798.762,462.211,774.5,476.848s-6.933,23.5-12.326,26.577c0,0,48.532-26.962,85.124,35.051,0,0-1.155-8.089,3.852-11.94S855,506.121,855,506.121a66.647,66.647,0,0,0,3.467-8.089C861.931,489.558,843.827,441.027,798.762,462.211Z" transform="translate(626.912 329.571)" fill="#434175"/>
  <ellipse id="Ellipse_411" data-name="Ellipse 411" cx="72.34" cy="76.787" rx="72.34" ry="76.787" transform="translate(1137.049 1312.759)" fill="#fbd56f"/>
  <ellipse id="Ellipse_412" data-name="Ellipse 412" cx="72.34" cy="76.787" rx="72.34" ry="76.787" transform="translate(1137.049 1312.759)" opacity="0.1"/>
  <ellipse id="Ellipse_413" data-name="Ellipse 413" cx="72.34" cy="75.077" rx="72.34" ry="75.077" transform="translate(1149.532 1316.178)" fill="#fbd56f"/>
  <ellipse id="Ellipse_414" data-name="Ellipse 414" cx="89.346" cy="15.104" rx="89.346" ry="15.104" transform="translate(84.283 1401.535)" fill="#6c63ff"/>
  <path id="Path_1076" data-name="Path 1076" d="M190.081,791.029c3.826-3.555,7.416-7.75,8.518-12.855s-1.073-11.228-5.952-13.093c-5.467-2.091-11.308,1.7-15.737,5.525s-9.5,8.194-15.3,7.384a23.3,23.3,0,0,0,7.2-21.8,9.108,9.108,0,0,0-2-4.427c-3.035-3.244-8.536-1.851-12.169.7-11.555,8.128-14.78,23.824-14.842,37.952-1.165-5.1-.184-10.406-.213-15.633s-1.461-11.022-5.871-13.83a17.684,17.684,0,0,0-8.954-2.1c-5.194-.191-10.979.33-14.527,4.129-4.408,4.72-3.264,12.64.57,17.837s9.667,8.453,15.036,12.042a33.337,33.337,0,0,1,10.745,10.248,10.143,10.143,0,0,1,.8,1.831h32.564a90.74,90.74,0,0,0,20.138-13.907Z" transform="translate(20.491 600.898)" fill="#6c63ff"/>
  <path id="Path_1077" data-name="Path 1077" d="M593.1,739.423a77.882,77.882,0,0,1,9.684,17.683c.647,1.626,1.28,3.334,1.88,5.127,9.626,28.767-5.626,63.264-9.987,59.544s-17.948-10.625-20.576-.923-12.333,19.618-12.333,19.618c-17.682,17.785-33.688-1.431-44.194-21.285a192.325,192.325,0,0,1-9.141-20.2c-2.332-6.1-3.672-10.311-3.672-10.311l73.65-62.752S585.529,729.2,593.1,739.423Z" transform="translate(388.509 578.726)" fill="#6c63ff"/>
  <path id="Path_1078" data-name="Path 1078" d="M532.833,760.255a77.888,77.888,0,0,1,9.684,17.683c.647,1.626,1.28,3.335,1.88,5.127,9.626,28.767-5.626,63.264-9.987,59.544s-17.948-10.625-20.576-.923S501.5,861.3,501.5,861.3c-17.682,17.785-33.688-1.431-44.194-21.285a192.326,192.326,0,0,1-9.14-20.2c-2.333-6.1-3.672-10.311-3.672-10.311l73.65-62.751S525.265,750.029,532.833,760.255Z" transform="translate(332.696 598.019)" fill="#6c63ff"/>
  <path id="Path_1079" data-name="Path 1079" d="M422.906,792.049a77.882,77.882,0,0,1-3.83,19.794c-.54,1.665-1.142,3.384-1.825,5.147-10.948,28.29-44.706,45.115-45.689,39.468s-7.037-19.635-15.252-13.842-22.015,7.233-22.015,7.233c-24.964,2.408-25.023-22.6-20.44-44.591a192.328,192.328,0,0,1,5.852-21.382c2.1-6.183,3.753-10.282,3.753-10.282l96.749-1.308S423.605,779.346,422.906,792.049Z" transform="translate(209.553 621.66)" fill="#6c63ff"/>
  <path id="Path_1080" data-name="Path 1080" d="M358.007,775.681a77.887,77.887,0,0,1-3.83,19.794c-.539,1.665-1.142,3.384-1.825,5.147-10.949,28.29-44.706,45.115-45.689,39.468s-7.037-19.635-15.252-13.842S269.4,833.48,269.4,833.48c-24.963,2.408-25.023-22.6-20.44-44.591a192.334,192.334,0,0,1,5.852-21.382c2.1-6.183,3.753-10.282,3.753-10.282l96.749-1.308S358.706,762.976,358.007,775.681Z" transform="translate(149.447 606.5)" fill="#6c63ff"/>
  <path id="Path_1081" data-name="Path 1081" d="M593.1,739.423a77.882,77.882,0,0,1,9.684,17.683c.647,1.626,1.28,3.334,1.88,5.127,9.626,28.767-5.626,63.264-9.987,59.544s-17.948-10.625-20.576-.923-12.333,19.618-12.333,19.618c-17.682,17.785-33.688-1.431-44.194-21.285a192.325,192.325,0,0,1-9.141-20.2c-2.332-6.1-3.672-10.311-3.672-10.311l73.65-62.752S585.529,729.2,593.1,739.423Z" transform="translate(388.509 578.726)" opacity="0.2"/>
  <path id="Path_1082" data-name="Path 1082" d="M532.833,760.255a77.888,77.888,0,0,1,9.684,17.683c.647,1.626,1.28,3.335,1.88,5.127,9.626,28.767-5.626,63.264-9.987,59.544s-17.948-10.625-20.576-.923S501.5,861.3,501.5,861.3c-17.682,17.785-33.688-1.431-44.194-21.285a192.326,192.326,0,0,1-9.14-20.2c-2.333-6.1-3.672-10.311-3.672-10.311l73.65-62.751S525.265,750.029,532.833,760.255Z" transform="translate(332.696 598.019)" opacity="0.2"/>
  <path id="Path_1083" data-name="Path 1083" d="M422.906,792.049a77.882,77.882,0,0,1-3.83,19.794c-.54,1.665-1.142,3.384-1.825,5.147-10.948,28.29-44.706,45.115-45.689,39.468s-7.037-19.635-15.252-13.842-22.015,7.233-22.015,7.233c-24.964,2.408-25.023-22.6-20.44-44.591a192.328,192.328,0,0,1,5.852-21.382c2.1-6.183,3.753-10.282,3.753-10.282l96.749-1.308S423.605,779.346,422.906,792.049Z" transform="translate(209.553 621.66)" opacity="0.2"/>
  <path id="Path_1084" data-name="Path 1084" d="M358.007,775.681a77.887,77.887,0,0,1-3.83,19.794c-.539,1.665-1.142,3.384-1.825,5.147-10.949,28.29-44.706,45.115-45.689,39.468s-7.037-19.635-15.252-13.842S269.4,833.48,269.4,833.48c-24.963,2.408-25.023-22.6-20.44-44.591a192.334,192.334,0,0,1,5.852-21.382c2.1-6.183,3.753-10.282,3.753-10.282l96.749-1.308S358.706,762.976,358.007,775.681Z" transform="translate(149.447 606.5)" opacity="0.2"/>
  <path id="Path_1085" data-name="Path 1085" d="M1124.684,771.021c0,258.41-87.416,467.893-490.822,467.893-271.073,0-480.79-67.354-490.822-467.893-6.47-258.329,219.749-467.893,490.822-467.893S1124.684,512.61,1124.684,771.021Z" transform="translate(53.38 187.15)" fill="#6c63ff"/>
  <path id="Path_1086" data-name="Path 1086" d="M349.994,307.369h.057a.115.115,0,0,1-.043.014Z" transform="translate(245.175 191.078)" opacity="0.2"/>
  <path id="Path_1087" data-name="Path 1087" d="M350.823,307.68c1.247-.2,3.712-.545,7.294-.817l-7.982.946q.172-.043.43-.086C350.651,307.709,350.723,307.693,350.823,307.68Z" transform="translate(245.305 190.609)" opacity="0.2"/>
  <path id="Path_1088" data-name="Path 1088" d="M709.635,501.909l-35.826,12.9a800.255,800.255,0,0,0-58.855-70.163,574.972,574.972,0,0,0-74.533-66.766c-91.73-67.984-162.681-69.718-186.111-67.97l53.854-6.334a437.849,437.849,0,0,1,144.581,52.264,477.633,477.633,0,0,1,86.886,64.186C686.52,463.546,709.635,501.909,709.635,501.909Z" transform="translate(249.171 187.563)" opacity="0.2"/>
  <path id="Path_1089" data-name="Path 1089" d="M381.85,516.363s-47.291-157.636-7.165-200.628c0,0,63.054-21.5,110.345,100.314Z" transform="translate(253.086 197.471)" opacity="0.2"/>
  <path id="Path_1090" data-name="Path 1090" d="M494.962,385.766S620.373,279.194,675.853,298.7c0,0,44.992,49.129-47.6,141.325Z" transform="translate(379.437 180.837)" fill="#6c63ff"/>
  <path id="Path_1091" data-name="Path 1091" d="M494.962,385.766S620.373,279.194,675.853,298.7c0,0,44.992,49.129-47.6,141.325Z" transform="translate(379.437 180.837)" opacity="0.2"/>
  <path id="Path_1092" data-name="Path 1092" d="M861.306,728.933c0,138.9-99.675,248.635-193.462,248.635S521.672,867.833,521.672,728.933s76.187-246.073,169.817-251.5C839.81,468.833,861.306,590.032,861.306,728.933Z" transform="translate(404.174 348.181)" fill="#6c63ff"/>
  <path id="Path_1093" data-name="Path 1093" d="M861.306,728.933c0,138.9-99.675,248.635-193.462,248.635S521.672,867.833,521.672,728.933s76.187-246.073,169.817-251.5C839.81,468.833,861.306,590.032,861.306,728.933Z" transform="translate(404.174 348.181)" opacity="0.2"/>
  <ellipse id="Ellipse_415" data-name="Ellipse 415" cx="31.527" cy="40.126" rx="31.527" ry="40.126" transform="translate(1034.759 1057.768)" fill="#6c63ff"/>
  <ellipse id="Ellipse_416" data-name="Ellipse 416" cx="31.527" cy="40.126" rx="31.527" ry="40.126" transform="translate(1146.537 1023.375)" fill="#6c63ff"/>
  <path id="Path_1094" data-name="Path 1094" d="M556.262,377.454a57.213,57.213,0,0,1-6.119,25.881,54.994,54.994,0,0,1-24.677,24.62,574.951,574.951,0,0,0-74.533-66.766,56.169,56.169,0,0,1,12.324-22.04,52.833,52.833,0,0,1,39.18-17.555C532.158,321.594,556.262,346.6,556.262,377.454Z" transform="translate(338.658 204.252)" fill="#fad46f"/>
</svg>
